<?xml version="1.0" encoding="UTF-8" standalone="no"?>
<!DOCTYPE svg PUBLIC "-//W3C//DTD SVG 1.1//EN"
 "http://www.w3.org/Graphics/SVG/1.1/DTD/svg11.dtd">
<!-- Generated by graphviz version 14.1.2 (0)
 -->
<!-- Pages: 1 -->
<svg width="344pt" height="476pt"
 viewBox="0.00 0.00 344.00 476.00" xmlns="http://www.w3.org/2000/svg" xmlns:xlink="http://www.w3.org/1999/xlink">
<g id="graph0" class="graph" transform="scale(1 1) rotate(0) translate(4 472)">
<!-- (6,) -->
<g id="node1" class="node">
<title>(6,)</title>
<polygon fill="none" stroke="white" points="294.5,-252 240.5,-252 240.5,-216 294.5,-216 294.5,-252"/>
<text xml:space="preserve" text-anchor="middle" x="267.5" y="-230.07" font-family="Iosevka" font-size="14.00" fill="white">(6,)</text>
</g>
<!-- (5, 1) -->
<g id="node2" class="node">
<title>(5, 1)</title>
<polygon fill="none" stroke="white" points="191.75,-180 135.25,-180 135.25,-144 191.75,-144 191.75,-180"/>
<text xml:space="preserve" text-anchor="middle" x="163.5" y="-158.07" font-family="Iosevka" font-size="14.00" fill="white">(5, 1)</text>
</g>
<!-- (6,)&#45;&gt;(5, 1) -->
<g id="edge1" class="edge">
<title>(6,)&#45;&gt;(5, 1)</title>
<path fill="none" stroke="white" d="M241.52,-215.52C228.52,-206.76 212.59,-196.04 198.53,-186.58"/>
<polygon fill="white" stroke="white" points="200.65,-183.79 190.4,-181.11 196.74,-189.59 200.65,-183.79"/>
</g>
<!-- (4, 2) -->
<g id="node3" class="node">
<title>(4, 2)</title>
<polygon fill="none" stroke="white" points="133.75,-108 77.25,-108 77.25,-72 133.75,-72 133.75,-108"/>
<text xml:space="preserve" text-anchor="middle" x="105.5" y="-86.08" font-family="Iosevka" font-size="14.00" fill="white">(4, 2)</text>
</g>
<!-- (5, 1)&#45;&gt;(4, 2) -->
<g id="edge2" class="edge">
<title>(5, 1)&#45;&gt;(4, 2)</title>
<path fill="none" stroke="white" d="M149.16,-143.7C142.42,-135.56 134.24,-125.69 126.8,-116.7"/>
<polygon fill="white" stroke="white" points="129.71,-114.74 120.64,-109.27 124.32,-119.2 129.71,-114.74"/>
</g>
<!-- (3, 2, 1) -->
<g id="node4" class="node">
<title>(3, 2, 1)</title>
<polygon fill="none" stroke="white" points="143.88,-36 67.12,-36 67.12,0 143.88,0 143.88,-36"/>
<text xml:space="preserve" text-anchor="middle" x="105.5" y="-14.07" font-family="Iosevka" font-size="14.00" fill="white">(3, 2, 1)</text>
</g>
<!-- (4, 2)&#45;&gt;(3, 2, 1) -->
<g id="edge3" class="edge">
<title>(4, 2)&#45;&gt;(3, 2, 1)</title>
<path fill="none" stroke="white" d="M105.5,-71.7C105.5,-64.41 105.5,-55.73 105.5,-47.54"/>
<polygon fill="white" stroke="white" points="109,-47.62 105.5,-37.62 102,-47.62 109,-47.62"/>
</g>
<!-- (3, 2, 1)&#45;&gt;(3, 2, 1) -->
<g id="edge6" class="edge">
<title>(3, 2, 1)&#45;&gt;(3, 2, 1)</title>
<path fill="none" stroke="white" d="M144.23,-31.36C154.29,-30.54 161.88,-26.09 161.88,-18 161.88,-13.33 159.34,-9.86 155.26,-7.62"/>
<polygon fill="white" stroke="white" points="156.26,-4.26 145.69,-5.03 154.43,-11.02 156.26,-4.26"/>
</g>
<!-- (4, 1, 1) -->
<g id="node5" class="node">
<title>(4, 1, 1)</title>
<polygon fill="none" stroke="white" points="86.88,-396 10.12,-396 10.12,-360 86.88,-360 86.88,-396"/>
<text xml:space="preserve" text-anchor="middle" x="48.5" y="-374.07" font-family="Iosevka" font-size="14.00" fill="white">(4, 1, 1)</text>
</g>
<!-- (3, 3) -->
<g id="node6" class="node">
<title>(3, 3)</title>
<polygon fill="none" stroke="white" points="76.75,-324 20.25,-324 20.25,-288 76.75,-288 76.75,-324"/>
<text xml:space="preserve" text-anchor="middle" x="48.5" y="-302.07" font-family="Iosevka" font-size="14.00" fill="white">(3, 3)</text>
</g>
<!-- (4, 1, 1)&#45;&gt;(3, 3) -->
<g id="edge4" class="edge">
<title>(4, 1, 1)&#45;&gt;(3, 3)</title>
<path fill="none" stroke="white" d="M48.5,-359.7C48.5,-352.41 48.5,-343.73 48.5,-335.54"/>
<polygon fill="white" stroke="white" points="52,-335.62 48.5,-325.62 45,-335.62 52,-335.62"/>
</g>
<!-- (2, 2, 2) -->
<g id="node7" class="node">
<title>(2, 2, 2)</title>
<polygon fill="none" stroke="white" points="86.88,-252 10.12,-252 10.12,-216 86.88,-216 86.88,-252"/>
<text xml:space="preserve" text-anchor="middle" x="48.5" y="-230.07" font-family="Iosevka" font-size="14.00" fill="white">(2, 2, 2)</text>
</g>
<!-- (3, 3)&#45;&gt;(2, 2, 2) -->
<g id="edge5" class="edge">
<title>(3, 3)&#45;&gt;(2, 2, 2)</title>
<path fill="none" stroke="white" d="M48.5,-287.7C48.5,-280.41 48.5,-271.73 48.5,-263.54"/>
<polygon fill="white" stroke="white" points="52,-263.62 48.5,-253.62 45,-263.62 52,-263.62"/>
</g>
<!-- (3, 1, 1, 1) -->
<g id="node8" class="node">
<title>(3, 1, 1, 1)</title>
<polygon fill="none" stroke="white" points="107,-180 10,-180 10,-144 107,-144 107,-180"/>
<text xml:space="preserve" text-anchor="middle" x="58.5" y="-158.07" font-family="Iosevka" font-size="14.00" fill="white">(3, 1, 1, 1)</text>
</g>
<!-- (2, 2, 2)&#45;&gt;(3, 1, 1, 1) -->
<g id="edge8" class="edge">
<title>(2, 2, 2)&#45;&gt;(3, 1, 1, 1)</title>
<path fill="none" stroke="white" d="M50.97,-215.7C52.03,-208.32 53.28,-199.52 54.46,-191.25"/>
<polygon fill="white" stroke="white" points="57.89,-192 55.84,-181.6 50.96,-191.01 57.89,-192"/>
</g>
<!-- (3, 1, 1, 1)&#45;&gt;(4, 2) -->
<g id="edge7" class="edge">
<title>(3, 1, 1, 1)&#45;&gt;(4, 2)</title>
<path fill="none" stroke="white" d="M70.12,-143.7C75.41,-135.81 81.8,-126.3 87.68,-117.55"/>
<polygon fill="white" stroke="white" points="90.5,-119.61 93.17,-109.36 84.69,-115.71 90.5,-119.61"/>
</g>
<!-- (2, 2, 1, 1) -->
<g id="node9" class="node">
<title>(2, 2, 1, 1)</title>
<polygon fill="none" stroke="white" points="97,-468 0,-468 0,-432 97,-432 97,-468"/>
<text xml:space="preserve" text-anchor="middle" x="48.5" y="-446.07" font-family="Iosevka" font-size="14.00" fill="white">(2, 2, 1, 1)</text>
</g>
<!-- (2, 2, 1, 1)&#45;&gt;(4, 1, 1) -->
<g id="edge9" class="edge">
<title>(2, 2, 1, 1)&#45;&gt;(4, 1, 1)</title>
<path fill="none" stroke="white" d="M48.5,-431.7C48.5,-424.41 48.5,-415.73 48.5,-407.54"/>
<polygon fill="white" stroke="white" points="52,-407.62 48.5,-397.62 45,-407.62 52,-407.62"/>
</g>
<!-- (2, 1, 1, 1, 1) -->
<g id="node10" class="node">
<title>(2, 1, 1, 1, 1)</title>
<polygon fill="none" stroke="white" points="222.12,-252 104.88,-252 104.88,-216 222.12,-216 222.12,-252"/>
<text xml:space="preserve" text-anchor="middle" x="163.5" y="-230.07" font-family="Iosevka" font-size="14.00" fill="white">(2, 1, 1, 1, 1)</text>
</g>
<!-- (2, 1, 1, 1, 1)&#45;&gt;(5, 1) -->
<g id="edge10" class="edge">
<title>(2, 1, 1, 1, 1)&#45;&gt;(5, 1)</title>
<path fill="none" stroke="white" d="M163.5,-215.7C163.5,-208.41 163.5,-199.73 163.5,-191.54"/>
<polygon fill="white" stroke="white" points="167,-191.62 163.5,-181.62 160,-191.62 167,-191.62"/>
</g>
<!-- (1, 1, 1, 1, 1, 1) -->
<g id="node11" class="node">
<title>(1, 1, 1, 1, 1, 1)</title>
<polygon fill="none" stroke="white" points="336.25,-324 198.75,-324 198.75,-288 336.25,-288 336.25,-324"/>
<text xml:space="preserve" text-anchor="middle" x="267.5" y="-302.07" font-family="Iosevka" font-size="14.00" fill="white">(1, 1, 1, 1, 1, 1)</text>
</g>
<!-- (1, 1, 1, 1, 1, 1)&#45;&gt;(6,) -->
<g id="edge11" class="edge">
<title>(1, 1, 1, 1, 1, 1)&#45;&gt;(6,)</title>
<path fill="none" stroke="white" d="M267.5,-287.7C267.5,-280.41 267.5,-271.73 267.5,-263.54"/>
<polygon fill="white" stroke="white" points="271,-263.62 267.5,-253.62 264,-263.62 271,-263.62"/>
</g>
</g>
</svg>
