<?xml version="1.0" encoding="UTF-8" standalone="no"?>
<!DOCTYPE svg PUBLIC "-//W3C//DTD SVG 1.1//EN"
 "http://www.w3.org/Graphics/SVG/1.1/DTD/svg11.dtd">
<!-- Generated by graphviz version 2.40.1 (20161225.0304)
 -->
<!-- Title: repo_labels Pages: 1 -->
<svg width="647pt" height="113pt"
 viewBox="0.00 0.00 646.80 113.00" xmlns="http://www.w3.org/2000/svg" xmlns:xlink="http://www.w3.org/1999/xlink">
<g id="graph0" class="graph" transform="scale(1 1) rotate(0) translate(4 109)">
<title>repo_labels</title>
<!-- m1 -->
<g id="node1" class="node">
<title>m1</title>
<ellipse fill="#ffffff" stroke="#ffffff" cx="5.4" cy="-81.5" rx="5.4" ry="5.4"/>
</g>
<!-- m2 -->
<g id="node2" class="node">
<title>m2</title>
<ellipse fill="#ffffff" stroke="#ffffff" cx="52.2" cy="-81.5" rx="5.4" ry="5.4"/>
</g>
<!-- m1&#45;&gt;m2 -->
<g id="edge1" class="edge">
<title>m1&#45;&gt;m2</title>
<path fill="none" stroke="#ffffff" d="M11.1386,-81.5C18.445,-81.5 31.2437,-81.5 40.6149,-81.5"/>
<polygon fill="#ffffff" stroke="#ffffff" points="40.7054,-83.6001 46.7053,-81.5 40.7053,-79.4001 40.7054,-83.6001"/>
</g>
<!-- m3 -->
<g id="node3" class="node">
<title>m3</title>
<ellipse fill="#ffffff" stroke="#ffffff" cx="99" cy="-81.5" rx="5.4" ry="5.4"/>
</g>
<!-- m2&#45;&gt;m3 -->
<g id="edge2" class="edge">
<title>m2&#45;&gt;m3</title>
<path fill="none" stroke="#ffffff" d="M57.9386,-81.5C65.245,-81.5 78.0437,-81.5 87.4149,-81.5"/>
<polygon fill="#ffffff" stroke="#ffffff" points="87.5054,-83.6001 93.5053,-81.5 87.5053,-79.4001 87.5054,-83.6001"/>
</g>
<!-- r1 -->
<g id="node11" class="node">
<title>r1</title>
<ellipse fill="#ffffff" stroke="#ffffff" cx="99" cy="-52.5" rx="5.4" ry="5.4"/>
</g>
<!-- m2&#45;&gt;r1 -->
<g id="edge10" class="edge">
<title>m2&#45;&gt;r1</title>
<path fill="none" stroke="#ffffff" d="M56.8585,-78.6133C64.3573,-73.9666 79.2669,-64.7278 89.1887,-58.5797"/>
<polygon fill="#ffffff" stroke="#ffffff" points="90.3663,-60.3205 94.3604,-55.375 88.154,-56.7503 90.3663,-60.3205"/>
</g>
<!-- m4 -->
<g id="node4" class="node">
<title>m4</title>
<ellipse fill="#ffffff" stroke="#ffffff" cx="145.8" cy="-81.5" rx="5.4" ry="5.4"/>
</g>
<!-- m3&#45;&gt;m4 -->
<g id="edge3" class="edge">
<title>m3&#45;&gt;m4</title>
<path fill="none" stroke="#ffffff" d="M104.7386,-81.5C112.045,-81.5 124.8437,-81.5 134.2149,-81.5"/>
<polygon fill="#ffffff" stroke="#ffffff" points="134.3054,-83.6001 140.3053,-81.5 134.3053,-79.4001 134.3054,-83.6001"/>
</g>
<!-- m5 -->
<g id="node5" class="node">
<title>m5</title>
<ellipse fill="#ffffff" stroke="#ffffff" cx="192.6" cy="-81.5" rx="5.4" ry="5.4"/>
</g>
<!-- m4&#45;&gt;m5 -->
<g id="edge4" class="edge">
<title>m4&#45;&gt;m5</title>
<path fill="none" stroke="#ffffff" d="M151.5386,-81.5C158.845,-81.5 171.6437,-81.5 181.0149,-81.5"/>
<polygon fill="#ffffff" stroke="#ffffff" points="181.1054,-83.6001 187.1053,-81.5 181.1053,-79.4001 181.1054,-83.6001"/>
</g>
<!-- m6 -->
<g id="node6" class="node">
<title>m6</title>
<ellipse fill="#ffffff" stroke="#ffffff" cx="239.4" cy="-81.5" rx="5.4" ry="5.4"/>
</g>
<!-- m5&#45;&gt;m6 -->
<g id="edge5" class="edge">
<title>m5&#45;&gt;m6</title>
<path fill="none" stroke="#ffffff" d="M198.3386,-81.5C205.645,-81.5 218.4437,-81.5 227.8149,-81.5"/>
<polygon fill="#ffffff" stroke="#ffffff" points="227.9054,-83.6001 233.9053,-81.5 227.9053,-79.4001 227.9054,-83.6001"/>
</g>
<!-- m7 -->
<g id="node7" class="node">
<title>m7</title>
<ellipse fill="#ffffff" stroke="#ffffff" cx="286.2" cy="-81.5" rx="5.4" ry="5.4"/>
</g>
<!-- m6&#45;&gt;m7 -->
<g id="edge6" class="edge">
<title>m6&#45;&gt;m7</title>
<path fill="none" stroke="#ffffff" d="M245.1386,-81.5C252.445,-81.5 265.2437,-81.5 274.6149,-81.5"/>
<polygon fill="#ffffff" stroke="#ffffff" points="274.7054,-83.6001 280.7053,-81.5 274.7053,-79.4001 274.7054,-83.6001"/>
</g>
<!-- m8 -->
<g id="node8" class="node">
<title>m8</title>
<ellipse fill="#ffffff" stroke="#ffffff" cx="333" cy="-81.5" rx="5.4" ry="5.4"/>
</g>
<!-- m7&#45;&gt;m8 -->
<g id="edge7" class="edge">
<title>m7&#45;&gt;m8</title>
<path fill="none" stroke="#ffffff" d="M291.9386,-81.5C299.245,-81.5 312.0437,-81.5 321.4149,-81.5"/>
<polygon fill="#ffffff" stroke="#ffffff" points="321.5054,-83.6001 327.5053,-81.5 321.5053,-79.4001 321.5054,-83.6001"/>
</g>
<!-- f1 -->
<g id="node15" class="node">
<title>f1</title>
<ellipse fill="#00ff00" stroke="#00ff00" cx="333" cy="-17.5" rx="5.4" ry="5.4"/>
</g>
<!-- m7&#45;&gt;f1 -->
<g id="edge17" class="edge">
<title>m7&#45;&gt;f1</title>
<path fill="none" stroke="#00ff00" d="M289.5657,-76.8973C297.1888,-66.4726 315.9003,-40.8841 326.0991,-26.9371"/>
<polygon fill="#00ff00" stroke="#00ff00" points="327.8182,-28.1439 329.6648,-22.061 324.428,-25.6647 327.8182,-28.1439"/>
</g>
<!-- m9 -->
<g id="node9" class="node">
<title>m9</title>
<ellipse fill="#ffffff" stroke="#ffffff" cx="379.8" cy="-81.5" rx="5.4" ry="5.4"/>
</g>
<!-- m8&#45;&gt;m9 -->
<g id="edge8" class="edge">
<title>m8&#45;&gt;m9</title>
<path fill="none" stroke="#ffffff" d="M338.7386,-81.5C346.045,-81.5 358.8437,-81.5 368.2149,-81.5"/>
<polygon fill="#ffffff" stroke="#ffffff" points="368.3054,-83.6001 374.3053,-81.5 368.3053,-79.4001 368.3054,-83.6001"/>
</g>
<!-- m10 -->
<g id="node10" class="node">
<title>m10</title>
<ellipse fill="#ffffff" stroke="#ffffff" cx="426.6" cy="-81.5" rx="5.4" ry="5.4"/>
</g>
<!-- m9&#45;&gt;m10 -->
<g id="edge9" class="edge">
<title>m9&#45;&gt;m10</title>
<path fill="none" stroke="#ffffff" d="M385.5386,-81.5C392.845,-81.5 405.6437,-81.5 415.0149,-81.5"/>
<polygon fill="#ffffff" stroke="#ffffff" points="415.1054,-83.6001 421.1053,-81.5 415.1053,-79.4001 415.1054,-83.6001"/>
</g>
<!-- b1 -->
<g id="node13" class="node">
<title>b1</title>
<ellipse fill="#ffffff" stroke="#ffffff" cx="426.6" cy="-52.5" rx="5.4" ry="5.4"/>
</g>
<!-- m9&#45;&gt;b1 -->
<g id="edge14" class="edge">
<title>m9&#45;&gt;b1</title>
<path fill="none" stroke="#ffffff" d="M384.4585,-78.6133C391.9573,-73.9666 406.8669,-64.7278 416.7887,-58.5797"/>
<polygon fill="#ffffff" stroke="#ffffff" points="417.9663,-60.3205 421.9604,-55.375 415.754,-56.7503 417.9663,-60.3205"/>
</g>
<!-- master -->
<g id="node18" class="node">
<title>master</title>
<polygon fill="none" stroke="#ffffff" points="609.8,-105 543.8,-105 543.8,-82 609.8,-82 609.8,-105"/>
<text text-anchor="middle" x="576.8" y="-89.8" font-family="monospace" font-size="14.00" fill="#ffffff">master</text>
</g>
<!-- m10&#45;&gt;master -->
<g id="edge18" class="edge">
<title>m10&#45;&gt;master</title>
<path fill="none" stroke="#ffffff" stroke-dasharray="5,2" d="M432.3046,-81.9558C450.3094,-83.3942 506.9119,-87.9164 543.6985,-90.8554"/>
</g>
<!-- r2 -->
<g id="node12" class="node">
<title>r2</title>
<ellipse fill="#ffffff" stroke="#ffffff" cx="145.8" cy="-52.5" rx="5.4" ry="5.4"/>
</g>
<!-- r1&#45;&gt;r2 -->
<g id="edge11" class="edge">
<title>r1&#45;&gt;r2</title>
<path fill="none" stroke="#ffffff" d="M104.7386,-52.5C112.045,-52.5 124.8437,-52.5 134.2149,-52.5"/>
<polygon fill="#ffffff" stroke="#ffffff" points="134.3054,-54.6001 140.3053,-52.5 134.3053,-50.4001 134.3054,-54.6001"/>
</g>
<!-- r2&#45;&gt;m5 -->
<g id="edge12" class="edge">
<title>r2&#45;&gt;m5</title>
<path fill="none" stroke="#ffffff" d="M150.4585,-55.3867C157.9573,-60.0334 172.8669,-69.2722 182.7887,-75.4203"/>
<polygon fill="#ffffff" stroke="#ffffff" points="181.754,-77.2497 187.9604,-78.625 183.9663,-73.6795 181.754,-77.2497"/>
</g>
<!-- b2 -->
<g id="node14" class="node">
<title>b2</title>
<ellipse fill="#ffffff" stroke="#ffffff" cx="473.4" cy="-52.5" rx="5.4" ry="5.4"/>
</g>
<!-- b1&#45;&gt;b2 -->
<g id="edge13" class="edge">
<title>b1&#45;&gt;b2</title>
<path fill="none" stroke="#ffffff" d="M432.3386,-52.5C439.645,-52.5 452.4437,-52.5 461.8149,-52.5"/>
<polygon fill="#ffffff" stroke="#ffffff" points="461.9054,-54.6001 467.9053,-52.5 461.9053,-50.4001 461.9054,-54.6001"/>
</g>
<!-- bugfix -->
<g id="node20" class="node">
<title>bugfix</title>
<polygon fill="none" stroke="#ffffff" points="609.8,-64 543.8,-64 543.8,-41 609.8,-41 609.8,-64"/>
<text text-anchor="middle" x="576.8" y="-48.8" font-family="monospace" font-size="14.00" fill="#ffffff">bugfix</text>
</g>
<!-- b2&#45;&gt;bugfix -->
<g id="edge20" class="edge">
<title>b2&#45;&gt;bugfix</title>
<path fill="none" stroke="#ffffff" stroke-dasharray="5,2" d="M478.9592,-52.5C490.9563,-52.5 520.0793,-52.5 543.452,-52.5"/>
</g>
<!-- f2 -->
<g id="node16" class="node">
<title>f2</title>
<ellipse fill="#00ff00" stroke="#00ff00" cx="379.8" cy="-17.5" rx="5.4" ry="5.4"/>
</g>
<!-- f1&#45;&gt;f2 -->
<g id="edge15" class="edge">
<title>f1&#45;&gt;f2</title>
<path fill="none" stroke="#00ff00" d="M338.7386,-17.5C346.045,-17.5 358.8437,-17.5 368.2149,-17.5"/>
<polygon fill="#00ff00" stroke="#00ff00" points="368.3054,-19.6001 374.3053,-17.5 368.3053,-15.4001 368.3054,-19.6001"/>
</g>
<!-- f3 -->
<g id="node17" class="node">
<title>f3</title>
<ellipse fill="#00ff00" stroke="#00ff00" cx="426.6" cy="-17.5" rx="5.4" ry="5.4"/>
</g>
<!-- f2&#45;&gt;f3 -->
<g id="edge16" class="edge">
<title>f2&#45;&gt;f3</title>
<path fill="none" stroke="#00ff00" d="M385.5386,-17.5C392.845,-17.5 405.6437,-17.5 415.0149,-17.5"/>
<polygon fill="#00ff00" stroke="#00ff00" points="415.1054,-19.6001 421.1053,-17.5 415.1053,-15.4001 415.1054,-19.6001"/>
</g>
<!-- alice/feature -->
<g id="node19" class="node">
<title>alice/feature</title>
<polygon fill="none" stroke="#ffffff" points="638.8,-23 514.8,-23 514.8,0 638.8,0 638.8,-23"/>
<text text-anchor="middle" x="576.8" y="-7.8" font-family="monospace" font-size="14.00" fill="#ffffff">alice/feature</text>
</g>
<!-- f3&#45;&gt;alice/feature -->
<g id="edge19" class="edge">
<title>f3&#45;&gt;alice/feature</title>
<path fill="none" stroke="#ffffff" stroke-dasharray="5,2" d="M432.3046,-17.2721C445.9689,-16.7263 481.8645,-15.2924 514.4574,-13.9904"/>
</g>
</g>
</svg>
