<?xml version="1.0" encoding="UTF-8" standalone="no"?>
<!DOCTYPE svg PUBLIC "-//W3C//DTD SVG 1.1//EN"
 "http://www.w3.org/Graphics/SVG/1.1/DTD/svg11.dtd">
<!-- Generated by graphviz version 2.40.1 (20161225.0304)
 -->
<!-- Title: repo_labels Pages: 1 -->
<svg width="597pt" height="154pt"
 viewBox="0.00 0.00 596.80 154.00" xmlns="http://www.w3.org/2000/svg" xmlns:xlink="http://www.w3.org/1999/xlink">
<g id="graph0" class="graph" transform="scale(1 1) rotate(0) translate(4 150)">
<title>repo_labels</title>
<!-- m1 -->
<g id="node1" class="node">
<title>m1</title>
<ellipse fill="#ffffff" stroke="#ffffff" cx="5.4" cy="-52.5" rx="5.4" ry="5.4"/>
</g>
<!-- m2 -->
<g id="node2" class="node">
<title>m2</title>
<ellipse fill="#ffffff" stroke="#ffffff" cx="52.2" cy="-52.5" rx="5.4" ry="5.4"/>
</g>
<!-- m1&#45;&gt;m2 -->
<g id="edge1" class="edge">
<title>m1&#45;&gt;m2</title>
<path fill="none" stroke="#ffffff" d="M11.1386,-52.5C18.445,-52.5 31.2437,-52.5 40.6149,-52.5"/>
<polygon fill="#ffffff" stroke="#ffffff" points="40.7054,-54.6001 46.7053,-52.5 40.7053,-50.4001 40.7054,-54.6001"/>
</g>
<!-- m3 -->
<g id="node3" class="node">
<title>m3</title>
<ellipse fill="#ffffff" stroke="#ffffff" cx="99" cy="-52.5" rx="5.4" ry="5.4"/>
</g>
<!-- m2&#45;&gt;m3 -->
<g id="edge2" class="edge">
<title>m2&#45;&gt;m3</title>
<path fill="none" stroke="#ffffff" d="M57.9386,-52.5C65.245,-52.5 78.0437,-52.5 87.4149,-52.5"/>
<polygon fill="#ffffff" stroke="#ffffff" points="87.5054,-54.6001 93.5053,-52.5 87.5053,-50.4001 87.5054,-54.6001"/>
</g>
<!-- r1 -->
<g id="node11" class="node">
<title>r1</title>
<ellipse fill="#ffffff" stroke="#ffffff" cx="99" cy="-23.5" rx="5.4" ry="5.4"/>
</g>
<!-- m2&#45;&gt;r1 -->
<g id="edge10" class="edge">
<title>m2&#45;&gt;r1</title>
<path fill="none" stroke="#ffffff" d="M56.8585,-49.6133C64.3573,-44.9666 79.2669,-35.7278 89.1887,-29.5797"/>
<polygon fill="#ffffff" stroke="#ffffff" points="90.3663,-31.3205 94.3604,-26.375 88.154,-27.7503 90.3663,-31.3205"/>
</g>
<!-- m4 -->
<g id="node4" class="node">
<title>m4</title>
<ellipse fill="#ffffff" stroke="#ffffff" cx="145.8" cy="-52.5" rx="5.4" ry="5.4"/>
</g>
<!-- m3&#45;&gt;m4 -->
<g id="edge3" class="edge">
<title>m3&#45;&gt;m4</title>
<path fill="none" stroke="#ffffff" d="M104.7386,-52.5C112.045,-52.5 124.8437,-52.5 134.2149,-52.5"/>
<polygon fill="#ffffff" stroke="#ffffff" points="134.3054,-54.6001 140.3053,-52.5 134.3053,-50.4001 134.3054,-54.6001"/>
</g>
<!-- m5 -->
<g id="node5" class="node">
<title>m5</title>
<ellipse fill="#ffffff" stroke="#ffffff" cx="192.6" cy="-52.5" rx="5.4" ry="5.4"/>
</g>
<!-- m4&#45;&gt;m5 -->
<g id="edge4" class="edge">
<title>m4&#45;&gt;m5</title>
<path fill="none" stroke="#ffffff" d="M151.5386,-52.5C158.845,-52.5 171.6437,-52.5 181.0149,-52.5"/>
<polygon fill="#ffffff" stroke="#ffffff" points="181.1054,-54.6001 187.1053,-52.5 181.1053,-50.4001 181.1054,-54.6001"/>
</g>
<!-- m6 -->
<g id="node6" class="node">
<title>m6</title>
<ellipse fill="#ffffff" stroke="#ffffff" cx="239.4" cy="-52.5" rx="5.4" ry="5.4"/>
</g>
<!-- m5&#45;&gt;m6 -->
<g id="edge5" class="edge">
<title>m5&#45;&gt;m6</title>
<path fill="none" stroke="#ffffff" d="M198.3386,-52.5C205.645,-52.5 218.4437,-52.5 227.8149,-52.5"/>
<polygon fill="#ffffff" stroke="#ffffff" points="227.9054,-54.6001 233.9053,-52.5 227.9053,-50.4001 227.9054,-54.6001"/>
</g>
<!-- m7 -->
<g id="node7" class="node">
<title>m7</title>
<ellipse fill="#ffffff" stroke="#ffffff" cx="286.2" cy="-52.5" rx="5.4" ry="5.4"/>
</g>
<!-- m6&#45;&gt;m7 -->
<g id="edge6" class="edge">
<title>m6&#45;&gt;m7</title>
<path fill="none" stroke="#ffffff" d="M245.1386,-52.5C252.445,-52.5 265.2437,-52.5 274.6149,-52.5"/>
<polygon fill="#ffffff" stroke="#ffffff" points="274.7054,-54.6001 280.7053,-52.5 274.7053,-50.4001 274.7054,-54.6001"/>
</g>
<!-- m8 -->
<g id="node8" class="node">
<title>m8</title>
<ellipse fill="#ffffff" stroke="#ffffff" cx="333" cy="-52.5" rx="5.4" ry="5.4"/>
</g>
<!-- m7&#45;&gt;m8 -->
<g id="edge7" class="edge">
<title>m7&#45;&gt;m8</title>
<path fill="none" stroke="#ffffff" d="M291.9386,-52.5C299.245,-52.5 312.0437,-52.5 321.4149,-52.5"/>
<polygon fill="#ffffff" stroke="#ffffff" points="321.5054,-54.6001 327.5053,-52.5 321.5053,-50.4001 321.5054,-54.6001"/>
</g>
<!-- m9 -->
<g id="node9" class="node">
<title>m9</title>
<ellipse fill="#ffffff" stroke="#ffffff" cx="379.8" cy="-52.5" rx="5.4" ry="5.4"/>
</g>
<!-- m8&#45;&gt;m9 -->
<g id="edge8" class="edge">
<title>m8&#45;&gt;m9</title>
<path fill="none" stroke="#ffffff" d="M338.7386,-52.5C346.045,-52.5 358.8437,-52.5 368.2149,-52.5"/>
<polygon fill="#ffffff" stroke="#ffffff" points="368.3054,-54.6001 374.3053,-52.5 368.3053,-50.4001 368.3054,-54.6001"/>
</g>
<!-- m10 -->
<g id="node10" class="node">
<title>m10</title>
<ellipse fill="#ffffff" stroke="#ffffff" cx="426.6" cy="-52.5" rx="5.4" ry="5.4"/>
</g>
<!-- m9&#45;&gt;m10 -->
<g id="edge9" class="edge">
<title>m9&#45;&gt;m10</title>
<path fill="none" stroke="#ffffff" d="M385.5386,-52.5C392.845,-52.5 405.6437,-52.5 415.0149,-52.5"/>
<polygon fill="#ffffff" stroke="#ffffff" points="415.1054,-54.6001 421.1053,-52.5 415.1053,-50.4001 415.1054,-54.6001"/>
</g>
<!-- b1 -->
<g id="node13" class="node">
<title>b1</title>
<ellipse fill="#ffffff" stroke="#ffffff" cx="426.6" cy="-15.5" rx="5.4" ry="5.4"/>
</g>
<!-- m9&#45;&gt;b1 -->
<g id="edge14" class="edge">
<title>m9&#45;&gt;b1</title>
<path fill="none" stroke="#ffffff" d="M384.1189,-49.0854C391.6033,-43.1683 407.1457,-30.8805 417.212,-22.9222"/>
<polygon fill="#ffffff" stroke="#ffffff" points="418.7506,-24.3827 422.155,-19.0142 416.1458,-21.088 418.7506,-24.3827"/>
</g>
<!-- f3 -->
<g id="node15" class="node">
<title>f3</title>
<ellipse fill="#00ff00" stroke="#00ff00" cx="473.4" cy="-93.5" rx="5.4" ry="5.4"/>
</g>
<!-- m10&#45;&gt;f3 -->
<g id="edge15" class="edge">
<title>m10&#45;&gt;f3</title>
<path fill="none" stroke="#00ff00" d="M430.9189,-56.2837C438.5497,-62.9687 454.5568,-76.992 464.5962,-85.7873"/>
<polygon fill="#00ff00" stroke="#00ff00" points="463.3293,-87.4693 469.2262,-89.8435 466.097,-84.3101 463.3293,-87.4693"/>
</g>
<!-- master -->
<g id="node17" class="node">
<title>master</title>
<polygon fill="none" stroke="#ffffff" points="584.8,-64 518.8,-64 518.8,-41 584.8,-41 584.8,-64"/>
<text text-anchor="middle" x="551.8" y="-48.8" font-family="monospace" font-size="14.00" fill="#ffffff">master</text>
</g>
<!-- m10&#45;&gt;master -->
<g id="edge17" class="edge">
<title>m10&#45;&gt;master</title>
<path fill="none" stroke="#ffffff" stroke-dasharray="5,2" d="M432.3049,-52.5C447.3259,-52.5 488.8665,-52.5 518.7491,-52.5"/>
</g>
<!-- r2 -->
<g id="node12" class="node">
<title>r2</title>
<ellipse fill="#ffffff" stroke="#ffffff" cx="145.8" cy="-23.5" rx="5.4" ry="5.4"/>
</g>
<!-- r1&#45;&gt;r2 -->
<g id="edge11" class="edge">
<title>r1&#45;&gt;r2</title>
<path fill="none" stroke="#ffffff" d="M104.7386,-23.5C112.045,-23.5 124.8437,-23.5 134.2149,-23.5"/>
<polygon fill="#ffffff" stroke="#ffffff" points="134.3054,-25.6001 140.3053,-23.5 134.3053,-21.4001 134.3054,-25.6001"/>
</g>
<!-- r2&#45;&gt;m5 -->
<g id="edge12" class="edge">
<title>r2&#45;&gt;m5</title>
<path fill="none" stroke="#ffffff" d="M150.4585,-26.3867C157.9573,-31.0334 172.8669,-40.2722 182.7887,-46.4203"/>
<polygon fill="#ffffff" stroke="#ffffff" points="181.754,-48.2497 187.9604,-49.625 183.9663,-44.6795 181.754,-48.2497"/>
</g>
<!-- b2 -->
<g id="node14" class="node">
<title>b2</title>
<ellipse fill="#ffffff" stroke="#ffffff" cx="473.4" cy="-15.5" rx="5.4" ry="5.4"/>
</g>
<!-- b1&#45;&gt;b2 -->
<g id="edge13" class="edge">
<title>b1&#45;&gt;b2</title>
<path fill="none" stroke="#ffffff" d="M432.3386,-15.5C439.645,-15.5 452.4437,-15.5 461.8149,-15.5"/>
<polygon fill="#ffffff" stroke="#ffffff" points="461.9054,-17.6001 467.9053,-15.5 461.9053,-13.4001 461.9054,-17.6001"/>
</g>
<!-- bugfix -->
<g id="node19" class="node">
<title>bugfix</title>
<polygon fill="none" stroke="#ffffff" points="584.8,-23 518.8,-23 518.8,0 584.8,0 584.8,-23"/>
<text text-anchor="middle" x="551.8" y="-7.8" font-family="monospace" font-size="14.00" fill="#ffffff">bugfix</text>
</g>
<!-- b2&#45;&gt;bugfix -->
<g id="edge19" class="edge">
<title>b2&#45;&gt;bugfix</title>
<path fill="none" stroke="#ffffff" stroke-dasharray="5,2" d="M479.0383,-15.2123C487.3946,-14.786 503.7044,-13.9539 518.7679,-13.1853"/>
</g>
<!-- HEAD -->
<g id="node16" class="node">
<title>HEAD</title>
<polygon fill="none" stroke="#ffffff" stroke-dasharray="5,2" points="576.8,-146 526.8,-146 526.8,-123 576.8,-123 576.8,-146"/>
<text text-anchor="middle" x="551.8" y="-130.8" font-family="monospace" font-size="14.00" fill="#ffffff">HEAD</text>
</g>
<!-- f3&#45;&gt;HEAD -->
<g id="edge16" class="edge">
<title>f3&#45;&gt;HEAD</title>
<path fill="none" stroke="#ffffff" stroke-dasharray="5,2" d="M478.544,-96.1901C488.7639,-101.5347 512.1578,-113.7687 529.7787,-122.9838"/>
</g>
<!-- feature -->
<g id="node18" class="node">
<title>feature</title>
<polygon fill="none" stroke="#ffffff" points="588.8,-105 514.8,-105 514.8,-82 588.8,-82 588.8,-105"/>
<text text-anchor="middle" x="551.8" y="-89.8" font-family="monospace" font-size="14.00" fill="#ffffff">feature</text>
</g>
<!-- f3&#45;&gt;feature -->
<g id="edge18" class="edge">
<title>f3&#45;&gt;feature</title>
<path fill="none" stroke="#ffffff" stroke-dasharray="5,2" d="M479.0383,-93.5C486.6221,-93.5 500.7571,-93.5 514.566,-93.5"/>
</g>
</g>
</svg>
