<?xml version="1.0" encoding="UTF-8" standalone="no"?>
<!DOCTYPE svg PUBLIC "-//W3C//DTD SVG 1.1//EN"
 "http://www.w3.org/Graphics/SVG/1.1/DTD/svg11.dtd">
<!-- Generated by graphviz version 2.40.1 (20161225.0304)
 -->
<!-- Title: repo_labels Pages: 1 -->
<svg width="690pt" height="154pt"
 viewBox="0.00 0.00 690.40 154.00" xmlns="http://www.w3.org/2000/svg" xmlns:xlink="http://www.w3.org/1999/xlink">
<g id="graph0" class="graph" transform="scale(1 1) rotate(0) translate(4 150)">
<title>repo_labels</title>
<!-- m1 -->
<g id="node1" class="node">
<title>m1</title>
<ellipse fill="#ffffff" stroke="#ffffff" cx="5.4" cy="-69.5" rx="5.4" ry="5.4"/>
</g>
<!-- m2 -->
<g id="node2" class="node">
<title>m2</title>
<ellipse fill="#ffffff" stroke="#ffffff" cx="52.2" cy="-69.5" rx="5.4" ry="5.4"/>
</g>
<!-- m1&#45;&gt;m2 -->
<g id="edge1" class="edge">
<title>m1&#45;&gt;m2</title>
<path fill="none" stroke="#ffffff" d="M11.1386,-69.5C18.445,-69.5 31.2437,-69.5 40.6149,-69.5"/>
<polygon fill="#ffffff" stroke="#ffffff" points="40.7054,-71.6001 46.7053,-69.5 40.7053,-67.4001 40.7054,-71.6001"/>
</g>
<!-- m3 -->
<g id="node3" class="node">
<title>m3</title>
<ellipse fill="#ffffff" stroke="#ffffff" cx="99" cy="-69.5" rx="5.4" ry="5.4"/>
</g>
<!-- m2&#45;&gt;m3 -->
<g id="edge2" class="edge">
<title>m2&#45;&gt;m3</title>
<path fill="none" stroke="#ffffff" d="M57.9386,-69.5C65.245,-69.5 78.0437,-69.5 87.4149,-69.5"/>
<polygon fill="#ffffff" stroke="#ffffff" points="87.5054,-71.6001 93.5053,-69.5 87.5053,-67.4001 87.5054,-71.6001"/>
</g>
<!-- r1 -->
<g id="node11" class="node">
<title>r1</title>
<ellipse fill="#ffffff" stroke="#ffffff" cx="99" cy="-40.5" rx="5.4" ry="5.4"/>
</g>
<!-- m2&#45;&gt;r1 -->
<g id="edge10" class="edge">
<title>m2&#45;&gt;r1</title>
<path fill="none" stroke="#ffffff" d="M56.8585,-66.6133C64.3573,-61.9666 79.2669,-52.7278 89.1887,-46.5797"/>
<polygon fill="#ffffff" stroke="#ffffff" points="90.3663,-48.3205 94.3604,-43.375 88.154,-44.7503 90.3663,-48.3205"/>
</g>
<!-- m4 -->
<g id="node4" class="node">
<title>m4</title>
<ellipse fill="#ffffff" stroke="#ffffff" cx="145.8" cy="-69.5" rx="5.4" ry="5.4"/>
</g>
<!-- m3&#45;&gt;m4 -->
<g id="edge3" class="edge">
<title>m3&#45;&gt;m4</title>
<path fill="none" stroke="#ffffff" d="M104.7386,-69.5C112.045,-69.5 124.8437,-69.5 134.2149,-69.5"/>
<polygon fill="#ffffff" stroke="#ffffff" points="134.3054,-71.6001 140.3053,-69.5 134.3053,-67.4001 134.3054,-71.6001"/>
</g>
<!-- m5 -->
<g id="node5" class="node">
<title>m5</title>
<ellipse fill="#ffffff" stroke="#ffffff" cx="192.6" cy="-69.5" rx="5.4" ry="5.4"/>
</g>
<!-- m4&#45;&gt;m5 -->
<g id="edge4" class="edge">
<title>m4&#45;&gt;m5</title>
<path fill="none" stroke="#ffffff" d="M151.5386,-69.5C158.845,-69.5 171.6437,-69.5 181.0149,-69.5"/>
<polygon fill="#ffffff" stroke="#ffffff" points="181.1054,-71.6001 187.1053,-69.5 181.1053,-67.4001 181.1054,-71.6001"/>
</g>
<!-- m6 -->
<g id="node6" class="node">
<title>m6</title>
<ellipse fill="#ffffff" stroke="#ffffff" cx="239.4" cy="-69.5" rx="5.4" ry="5.4"/>
</g>
<!-- m5&#45;&gt;m6 -->
<g id="edge5" class="edge">
<title>m5&#45;&gt;m6</title>
<path fill="none" stroke="#ffffff" d="M198.3386,-69.5C205.645,-69.5 218.4437,-69.5 227.8149,-69.5"/>
<polygon fill="#ffffff" stroke="#ffffff" points="227.9054,-71.6001 233.9053,-69.5 227.9053,-67.4001 227.9054,-71.6001"/>
</g>
<!-- m7 -->
<g id="node7" class="node">
<title>m7</title>
<ellipse fill="#ffffff" stroke="#ffffff" cx="286.2" cy="-69.5" rx="5.4" ry="5.4"/>
</g>
<!-- m6&#45;&gt;m7 -->
<g id="edge6" class="edge">
<title>m6&#45;&gt;m7</title>
<path fill="none" stroke="#ffffff" d="M245.1386,-69.5C252.445,-69.5 265.2437,-69.5 274.6149,-69.5"/>
<polygon fill="#ffffff" stroke="#ffffff" points="274.7054,-71.6001 280.7053,-69.5 274.7053,-67.4001 274.7054,-71.6001"/>
</g>
<!-- m8 -->
<g id="node8" class="node">
<title>m8</title>
<ellipse fill="#ffffff" stroke="#ffffff" cx="333" cy="-69.5" rx="5.4" ry="5.4"/>
</g>
<!-- m7&#45;&gt;m8 -->
<g id="edge7" class="edge">
<title>m7&#45;&gt;m8</title>
<path fill="none" stroke="#ffffff" d="M291.9386,-69.5C299.245,-69.5 312.0437,-69.5 321.4149,-69.5"/>
<polygon fill="#ffffff" stroke="#ffffff" points="321.5054,-71.6001 327.5053,-69.5 321.5053,-67.4001 321.5054,-71.6001"/>
</g>
<!-- m9 -->
<g id="node9" class="node">
<title>m9</title>
<ellipse fill="#ffffff" stroke="#ffffff" cx="379.8" cy="-69.5" rx="5.4" ry="5.4"/>
</g>
<!-- m8&#45;&gt;m9 -->
<g id="edge8" class="edge">
<title>m8&#45;&gt;m9</title>
<path fill="none" stroke="#ffffff" d="M338.7386,-69.5C346.045,-69.5 358.8437,-69.5 368.2149,-69.5"/>
<polygon fill="#ffffff" stroke="#ffffff" points="368.3054,-71.6001 374.3053,-69.5 368.3053,-67.4001 368.3054,-71.6001"/>
</g>
<!-- m10 -->
<g id="node10" class="node">
<title>m10</title>
<ellipse fill="#ffffff" stroke="#ffffff" cx="426.6" cy="-69.5" rx="5.4" ry="5.4"/>
</g>
<!-- m9&#45;&gt;m10 -->
<g id="edge9" class="edge">
<title>m9&#45;&gt;m10</title>
<path fill="none" stroke="#ffffff" d="M385.5386,-69.5C392.845,-69.5 405.6437,-69.5 415.0149,-69.5"/>
<polygon fill="#ffffff" stroke="#ffffff" points="415.1054,-71.6001 421.1053,-69.5 415.1053,-67.4001 415.1054,-71.6001"/>
</g>
<!-- b1 -->
<g id="node13" class="node">
<title>b1</title>
<ellipse fill="#ffffff" stroke="#ffffff" cx="426.6" cy="-37.5" rx="5.4" ry="5.4"/>
</g>
<!-- m9&#45;&gt;b1 -->
<g id="edge14" class="edge">
<title>m9&#45;&gt;b1</title>
<path fill="none" stroke="#ffffff" d="M384.4585,-66.3147C391.9573,-61.1873 406.8669,-50.9928 416.7887,-44.2086"/>
<polygon fill="#ffffff" stroke="#ffffff" points="418.1928,-45.7925 421.9604,-40.6724 415.8222,-42.3255 418.1928,-45.7925"/>
</g>
<!-- f1 -->
<g id="node15" class="node">
<title>f1</title>
<ellipse fill="#00ff00" stroke="#00ff00" cx="473.4" cy="-72.5" rx="5.4" ry="5.4"/>
</g>
<!-- m10&#45;&gt;f1 -->
<g id="edge17" class="edge">
<title>m10&#45;&gt;f1</title>
<path fill="none" stroke="#00ff00" d="M432.3386,-69.8679C439.645,-70.3362 452.4437,-71.1566 461.8149,-71.7574"/>
<polygon fill="#00ff00" stroke="#00ff00" points="461.7833,-73.8596 467.9053,-72.1478 462.052,-69.6682 461.7833,-73.8596"/>
</g>
<!-- r2 -->
<g id="node12" class="node">
<title>r2</title>
<ellipse fill="#ffffff" stroke="#ffffff" cx="145.8" cy="-40.5" rx="5.4" ry="5.4"/>
</g>
<!-- r1&#45;&gt;r2 -->
<g id="edge11" class="edge">
<title>r1&#45;&gt;r2</title>
<path fill="none" stroke="#ffffff" d="M104.7386,-40.5C112.045,-40.5 124.8437,-40.5 134.2149,-40.5"/>
<polygon fill="#ffffff" stroke="#ffffff" points="134.3054,-42.6001 140.3053,-40.5 134.3053,-38.4001 134.3054,-42.6001"/>
</g>
<!-- r2&#45;&gt;m5 -->
<g id="edge12" class="edge">
<title>r2&#45;&gt;m5</title>
<path fill="none" stroke="#ffffff" d="M150.4585,-43.3867C157.9573,-48.0334 172.8669,-57.2722 182.7887,-63.4203"/>
<polygon fill="#ffffff" stroke="#ffffff" points="181.754,-65.2497 187.9604,-66.625 183.9663,-61.6795 181.754,-65.2497"/>
</g>
<!-- b2 -->
<g id="node14" class="node">
<title>b2</title>
<ellipse fill="#ffffff" stroke="#ffffff" cx="473.4" cy="-37.5" rx="5.4" ry="5.4"/>
</g>
<!-- b1&#45;&gt;b2 -->
<g id="edge13" class="edge">
<title>b1&#45;&gt;b2</title>
<path fill="none" stroke="#ffffff" d="M432.3386,-37.5C439.645,-37.5 452.4437,-37.5 461.8149,-37.5"/>
<polygon fill="#ffffff" stroke="#ffffff" points="461.9054,-39.6001 467.9053,-37.5 461.9053,-35.4001 461.9054,-39.6001"/>
</g>
<!-- bugfix -->
<g id="node21" class="node">
<title>bugfix</title>
<polygon fill="none" stroke="#ffffff" points="678.4,-23 612.4,-23 612.4,0 678.4,0 678.4,-23"/>
<text text-anchor="middle" x="645.4" y="-7.8" font-family="monospace" font-size="14.00" fill="#ffffff">bugfix</text>
</g>
<!-- b2&#45;&gt;bugfix -->
<g id="edge21" class="edge">
<title>b2&#45;&gt;bugfix</title>
<path fill="none" stroke="#ffffff" stroke-dasharray="5,2" d="M479.1227,-36.6349C499.5244,-33.551 569.7346,-22.9378 612.122,-16.5304"/>
</g>
<!-- f2 -->
<g id="node16" class="node">
<title>f2</title>
<ellipse fill="#00ff00" stroke="#00ff00" cx="520.2" cy="-72.5" rx="5.4" ry="5.4"/>
</g>
<!-- f1&#45;&gt;f2 -->
<g id="edge15" class="edge">
<title>f1&#45;&gt;f2</title>
<path fill="none" stroke="#00ff00" d="M479.1386,-72.5C486.445,-72.5 499.2437,-72.5 508.6149,-72.5"/>
<polygon fill="#00ff00" stroke="#00ff00" points="508.7054,-74.6001 514.7053,-72.5 508.7053,-70.4001 508.7054,-74.6001"/>
</g>
<!-- f3 -->
<g id="node17" class="node">
<title>f3</title>
<ellipse fill="#00ff00" stroke="#00ff00" cx="567" cy="-72.5" rx="5.4" ry="5.4"/>
</g>
<!-- f2&#45;&gt;f3 -->
<g id="edge16" class="edge">
<title>f2&#45;&gt;f3</title>
<path fill="none" stroke="#00ff00" d="M525.9386,-72.5C533.245,-72.5 546.0437,-72.5 555.4149,-72.5"/>
<polygon fill="#00ff00" stroke="#00ff00" points="555.5054,-74.6001 561.5053,-72.5 555.5053,-70.4001 555.5054,-74.6001"/>
</g>
<!-- HEAD -->
<g id="node18" class="node">
<title>HEAD</title>
<polygon fill="none" stroke="#ffffff" stroke-dasharray="5,2" points="670.4,-146 620.4,-146 620.4,-123 670.4,-123 670.4,-146"/>
<text text-anchor="middle" x="645.4" y="-130.8" font-family="monospace" font-size="14.00" fill="#ffffff">HEAD</text>
</g>
<!-- f3&#45;&gt;HEAD -->
<g id="edge18" class="edge">
<title>f3&#45;&gt;HEAD</title>
<path fill="none" stroke="#ffffff" stroke-dasharray="5,2" d="M570.5213,-76.8493C577.2526,-84.9731 592.6803,-102.6962 608.4,-114.5 612.3706,-117.4815 616.8424,-120.2902 621.269,-122.8075"/>
</g>
<!-- master -->
<g id="node19" class="node">
<title>master</title>
<polygon fill="none" stroke="#ffffff" points="678.4,-105 612.4,-105 612.4,-82 678.4,-82 678.4,-105"/>
<text text-anchor="middle" x="645.4" y="-89.8" font-family="monospace" font-size="14.00" fill="#ffffff">master</text>
</g>
<!-- f3&#45;&gt;master -->
<g id="edge19" class="edge">
<title>f3&#45;&gt;master</title>
<path fill="none" stroke="#ffffff" stroke-dasharray="5,2" d="M572.3887,-73.9434C580.6224,-76.1489 596.9776,-80.5297 612.1247,-84.587"/>
</g>
<!-- feature -->
<g id="node20" class="node">
<title>feature</title>
<polygon fill="none" stroke="#ffffff" points="682.4,-64 608.4,-64 608.4,-41 682.4,-41 682.4,-64"/>
<text text-anchor="middle" x="645.4" y="-48.8" font-family="monospace" font-size="14.00" fill="#ffffff">feature</text>
</g>
<!-- f3&#45;&gt;feature -->
<g id="edge20" class="edge">
<title>f3&#45;&gt;feature</title>
<path fill="none" stroke="#ffffff" stroke-dasharray="5,2" d="M572.3887,-71.1253C579.9305,-69.2014 594.2862,-65.5392 608.286,-61.9678"/>
</g>
</g>
</svg>
