<?xml version="1.0" encoding="UTF-8" standalone="no"?>
<!DOCTYPE svg PUBLIC "-//W3C//DTD SVG 1.1//EN"
 "http://www.w3.org/Graphics/SVG/1.1/DTD/svg11.dtd">
<!-- Generated by graphviz version 2.40.1 (20161225.0304)
 -->
<!-- Title: repo_labels Pages: 1 -->
<svg width="690pt" height="169pt"
 viewBox="0.00 0.00 690.40 168.90" xmlns="http://www.w3.org/2000/svg" xmlns:xlink="http://www.w3.org/1999/xlink">
<g id="graph0" class="graph" transform="scale(1 1) rotate(0) translate(4 164.9)">
<title>repo_labels</title>
<!-- m1 -->
<g id="node1" class="node">
<title>m1</title>
<ellipse fill="#ffffff" stroke="#ffffff" cx="5.4" cy="-65.4" rx="5.4" ry="5.4"/>
</g>
<!-- m2 -->
<g id="node2" class="node">
<title>m2</title>
<ellipse fill="#ffffff" stroke="#ffffff" cx="52.2" cy="-65.4" rx="5.4" ry="5.4"/>
</g>
<!-- m1&#45;&gt;m2 -->
<g id="edge1" class="edge">
<title>m1&#45;&gt;m2</title>
<path fill="none" stroke="#ffffff" d="M11.1386,-65.4C18.445,-65.4 31.2437,-65.4 40.6149,-65.4"/>
<polygon fill="#ffffff" stroke="#ffffff" points="40.7054,-67.5001 46.7053,-65.4 40.7053,-63.3001 40.7054,-67.5001"/>
</g>
<!-- m3 -->
<g id="node3" class="node">
<title>m3</title>
<ellipse fill="#ffffff" stroke="#ffffff" cx="99" cy="-65.4" rx="5.4" ry="5.4"/>
</g>
<!-- m2&#45;&gt;m3 -->
<g id="edge2" class="edge">
<title>m2&#45;&gt;m3</title>
<path fill="none" stroke="#ffffff" d="M57.9386,-65.4C65.245,-65.4 78.0437,-65.4 87.4149,-65.4"/>
<polygon fill="#ffffff" stroke="#ffffff" points="87.5054,-67.5001 93.5053,-65.4 87.5053,-63.3001 87.5054,-67.5001"/>
</g>
<!-- r1 -->
<g id="node11" class="node">
<title>r1</title>
<ellipse fill="#ffffff" stroke="#ffffff" cx="99" cy="-36.4" rx="5.4" ry="5.4"/>
</g>
<!-- m2&#45;&gt;r1 -->
<g id="edge10" class="edge">
<title>m2&#45;&gt;r1</title>
<path fill="none" stroke="#ffffff" d="M56.8585,-62.5133C64.3573,-57.8666 79.2669,-48.6278 89.1887,-42.4797"/>
<polygon fill="#ffffff" stroke="#ffffff" points="90.3663,-44.2205 94.3604,-39.275 88.154,-40.6503 90.3663,-44.2205"/>
</g>
<!-- m4 -->
<g id="node4" class="node">
<title>m4</title>
<ellipse fill="#ffffff" stroke="#ffffff" cx="145.8" cy="-65.4" rx="5.4" ry="5.4"/>
</g>
<!-- m3&#45;&gt;m4 -->
<g id="edge3" class="edge">
<title>m3&#45;&gt;m4</title>
<path fill="none" stroke="#ffffff" d="M104.7386,-65.4C112.045,-65.4 124.8437,-65.4 134.2149,-65.4"/>
<polygon fill="#ffffff" stroke="#ffffff" points="134.3054,-67.5001 140.3053,-65.4 134.3053,-63.3001 134.3054,-67.5001"/>
</g>
<!-- m5 -->
<g id="node5" class="node">
<title>m5</title>
<ellipse fill="#ffffff" stroke="#ffffff" cx="192.6" cy="-65.4" rx="5.4" ry="5.4"/>
</g>
<!-- m4&#45;&gt;m5 -->
<g id="edge4" class="edge">
<title>m4&#45;&gt;m5</title>
<path fill="none" stroke="#ffffff" d="M151.5386,-65.4C158.845,-65.4 171.6437,-65.4 181.0149,-65.4"/>
<polygon fill="#ffffff" stroke="#ffffff" points="181.1054,-67.5001 187.1053,-65.4 181.1053,-63.3001 181.1054,-67.5001"/>
</g>
<!-- m6 -->
<g id="node6" class="node">
<title>m6</title>
<ellipse fill="#ffffff" stroke="#ffffff" cx="239.4" cy="-65.4" rx="5.4" ry="5.4"/>
</g>
<!-- m5&#45;&gt;m6 -->
<g id="edge5" class="edge">
<title>m5&#45;&gt;m6</title>
<path fill="none" stroke="#ffffff" d="M198.3386,-65.4C205.645,-65.4 218.4437,-65.4 227.8149,-65.4"/>
<polygon fill="#ffffff" stroke="#ffffff" points="227.9054,-67.5001 233.9053,-65.4 227.9053,-63.3001 227.9054,-67.5001"/>
</g>
<!-- m7 -->
<g id="node7" class="node">
<title>m7</title>
<ellipse fill="#ffffff" stroke="#ffffff" cx="286.2" cy="-65.4" rx="5.4" ry="5.4"/>
</g>
<!-- m6&#45;&gt;m7 -->
<g id="edge6" class="edge">
<title>m6&#45;&gt;m7</title>
<path fill="none" stroke="#ffffff" d="M245.1386,-65.4C252.445,-65.4 265.2437,-65.4 274.6149,-65.4"/>
<polygon fill="#ffffff" stroke="#ffffff" points="274.7054,-67.5001 280.7053,-65.4 274.7053,-63.3001 274.7054,-67.5001"/>
</g>
<!-- m8 -->
<g id="node8" class="node">
<title>m8</title>
<ellipse fill="#ffffff" stroke="#ffffff" cx="333" cy="-65.4" rx="5.4" ry="5.4"/>
</g>
<!-- m7&#45;&gt;m8 -->
<g id="edge7" class="edge">
<title>m7&#45;&gt;m8</title>
<path fill="none" stroke="#ffffff" d="M291.9386,-65.4C299.245,-65.4 312.0437,-65.4 321.4149,-65.4"/>
<polygon fill="#ffffff" stroke="#ffffff" points="321.5054,-67.5001 327.5053,-65.4 321.5053,-63.3001 321.5054,-67.5001"/>
</g>
<!-- fb1 -->
<g id="node15" class="node">
<title>fb1</title>
<ellipse fill="#ff0000" stroke="#ff0000" cx="333" cy="-5.4" rx="5.4" ry="5.4"/>
</g>
<!-- m7&#45;&gt;fb1 -->
<g id="edge17" class="edge">
<title>m7&#45;&gt;fb1</title>
<path fill="none" stroke="#ff0000" d="M289.5657,-61.0849C297.1213,-51.3983 315.57,-27.7461 325.8264,-14.5969"/>
<polygon fill="#ff0000" stroke="#ff0000" points="327.6304,-15.6986 329.6648,-9.676 324.3187,-13.1154 327.6304,-15.6986"/>
</g>
<!-- m9 -->
<g id="node9" class="node">
<title>m9</title>
<ellipse fill="#ffffff" stroke="#ffffff" cx="379.8" cy="-65.4" rx="5.4" ry="5.4"/>
</g>
<!-- m8&#45;&gt;m9 -->
<g id="edge8" class="edge">
<title>m8&#45;&gt;m9</title>
<path fill="none" stroke="#ffffff" d="M338.7386,-65.4C346.045,-65.4 358.8437,-65.4 368.2149,-65.4"/>
<polygon fill="#ffffff" stroke="#ffffff" points="368.3054,-67.5001 374.3053,-65.4 368.3053,-63.3001 368.3054,-67.5001"/>
</g>
<!-- m10 -->
<g id="node10" class="node">
<title>m10</title>
<ellipse fill="#ffffff" stroke="#ffffff" cx="426.6" cy="-65.4" rx="5.4" ry="5.4"/>
</g>
<!-- m9&#45;&gt;m10 -->
<g id="edge9" class="edge">
<title>m9&#45;&gt;m10</title>
<path fill="none" stroke="#ffffff" d="M385.5386,-65.4C392.845,-65.4 405.6437,-65.4 415.0149,-65.4"/>
<polygon fill="#ffffff" stroke="#ffffff" points="415.1054,-67.5001 421.1053,-65.4 415.1053,-63.3001 415.1054,-67.5001"/>
</g>
<!-- b1 -->
<g id="node13" class="node">
<title>b1</title>
<ellipse fill="#ffffff" stroke="#ffffff" cx="426.6" cy="-34.4" rx="5.4" ry="5.4"/>
</g>
<!-- m9&#45;&gt;b1 -->
<g id="edge14" class="edge">
<title>m9&#45;&gt;b1</title>
<path fill="none" stroke="#ffffff" d="M384.4585,-62.3143C391.9573,-57.3471 406.8669,-47.4711 416.7887,-40.899"/>
<polygon fill="#ffffff" stroke="#ffffff" points="418.1179,-42.5374 421.9604,-37.4733 415.7985,-39.0359 418.1179,-42.5374"/>
</g>
<!-- f1 -->
<g id="node18" class="node">
<title>f1</title>
<ellipse fill="#00ff00" stroke="#00ff00" cx="473.4" cy="-108.4" rx="5.4" ry="5.4"/>
</g>
<!-- m10&#45;&gt;f1 -->
<g id="edge20" class="edge">
<title>m10&#45;&gt;f1</title>
<path fill="none" stroke="#00ff00" d="M430.5901,-69.0662C438.1195,-75.9842 454.5783,-91.1065 464.7528,-100.4549"/>
<polygon fill="#00ff00" stroke="#00ff00" points="463.5809,-102.23 469.42,-104.7431 466.4225,-99.1372 463.5809,-102.23"/>
</g>
<!-- master -->
<g id="node22" class="node">
<title>master</title>
<polygon fill="none" stroke="#ffffff" points="678.4,-78.9 612.4,-78.9 612.4,-55.9 678.4,-55.9 678.4,-78.9"/>
<text text-anchor="middle" x="645.4" y="-63.7" font-family="monospace" font-size="14.00" fill="#ffffff">master</text>
</g>
<!-- m10&#45;&gt;master -->
<g id="edge22" class="edge">
<title>m10&#45;&gt;master</title>
<path fill="none" stroke="#ffffff" stroke-dasharray="5,2" d="M432.0086,-65.4494C456.5547,-65.6738 558.5907,-66.6065 612.1839,-67.0964"/>
</g>
<!-- r2 -->
<g id="node12" class="node">
<title>r2</title>
<ellipse fill="#ffffff" stroke="#ffffff" cx="145.8" cy="-36.4" rx="5.4" ry="5.4"/>
</g>
<!-- r1&#45;&gt;r2 -->
<g id="edge11" class="edge">
<title>r1&#45;&gt;r2</title>
<path fill="none" stroke="#ffffff" d="M104.7386,-36.4C112.045,-36.4 124.8437,-36.4 134.2149,-36.4"/>
<polygon fill="#ffffff" stroke="#ffffff" points="134.3054,-38.5001 140.3053,-36.4 134.3053,-34.3001 134.3054,-38.5001"/>
</g>
<!-- r2&#45;&gt;m5 -->
<g id="edge12" class="edge">
<title>r2&#45;&gt;m5</title>
<path fill="none" stroke="#ffffff" d="M150.4585,-39.2867C157.9573,-43.9334 172.8669,-53.1722 182.7887,-59.3203"/>
<polygon fill="#ffffff" stroke="#ffffff" points="181.754,-61.1497 187.9604,-62.525 183.9663,-57.5795 181.754,-61.1497"/>
</g>
<!-- b2 -->
<g id="node14" class="node">
<title>b2</title>
<ellipse fill="#ffffff" stroke="#ffffff" cx="473.4" cy="-34.4" rx="5.4" ry="5.4"/>
</g>
<!-- b1&#45;&gt;b2 -->
<g id="edge13" class="edge">
<title>b1&#45;&gt;b2</title>
<path fill="none" stroke="#ffffff" d="M432.3386,-34.4C439.645,-34.4 452.4437,-34.4 461.8149,-34.4"/>
<polygon fill="#ffffff" stroke="#ffffff" points="461.9054,-36.5001 467.9053,-34.4 461.9053,-32.3001 461.9054,-36.5001"/>
</g>
<!-- bugfix -->
<g id="node24" class="node">
<title>bugfix</title>
<polygon fill="none" stroke="#ffffff" points="678.4,-37.9 612.4,-37.9 612.4,-14.9 678.4,-14.9 678.4,-37.9"/>
<text text-anchor="middle" x="645.4" y="-22.7" font-family="monospace" font-size="14.00" fill="#ffffff">bugfix</text>
</g>
<!-- b2&#45;&gt;bugfix -->
<g id="edge24" class="edge">
<title>b2&#45;&gt;bugfix</title>
<path fill="none" stroke="#ffffff" stroke-dasharray="5,2" d="M479.1227,-34.1338C499.5244,-33.1849 569.7346,-29.9193 612.122,-27.9478"/>
</g>
<!-- fb2 -->
<g id="node16" class="node">
<title>fb2</title>
<ellipse fill="#ff0000" stroke="#ff0000" cx="379.8" cy="-5.4" rx="5.4" ry="5.4"/>
</g>
<!-- fb1&#45;&gt;fb2 -->
<g id="edge15" class="edge">
<title>fb1&#45;&gt;fb2</title>
<path fill="none" stroke="#ff0000" d="M338.7386,-5.4C346.045,-5.4 358.8437,-5.4 368.2149,-5.4"/>
<polygon fill="#ff0000" stroke="#ff0000" points="368.3054,-7.5001 374.3053,-5.4 368.3053,-3.3001 368.3054,-7.5001"/>
</g>
<!-- fb3 -->
<g id="node17" class="node">
<title>fb3</title>
<ellipse fill="#ff0000" stroke="#ff0000" cx="426.6" cy="-5.4" rx="5.4" ry="5.4"/>
</g>
<!-- fb2&#45;&gt;fb3 -->
<g id="edge16" class="edge">
<title>fb2&#45;&gt;fb3</title>
<path fill="none" stroke="#ff0000" d="M385.5386,-5.4C392.845,-5.4 405.6437,-5.4 415.0149,-5.4"/>
<polygon fill="#ff0000" stroke="#ff0000" points="415.1054,-7.5001 421.1053,-5.4 415.1053,-3.3001 415.1054,-7.5001"/>
</g>
<!-- f2 -->
<g id="node19" class="node">
<title>f2</title>
<ellipse fill="#00ff00" stroke="#00ff00" cx="520.2" cy="-108.4" rx="5.4" ry="5.4"/>
</g>
<!-- f1&#45;&gt;f2 -->
<g id="edge18" class="edge">
<title>f1&#45;&gt;f2</title>
<path fill="none" stroke="#00ff00" d="M479.1386,-108.4C486.445,-108.4 499.2437,-108.4 508.6149,-108.4"/>
<polygon fill="#00ff00" stroke="#00ff00" points="508.7054,-110.5001 514.7053,-108.4 508.7053,-106.3001 508.7054,-110.5001"/>
</g>
<!-- f3 -->
<g id="node20" class="node">
<title>f3</title>
<ellipse fill="#00ff00" stroke="#00ff00" cx="567" cy="-108.4" rx="5.4" ry="5.4"/>
</g>
<!-- f2&#45;&gt;f3 -->
<g id="edge19" class="edge">
<title>f2&#45;&gt;f3</title>
<path fill="none" stroke="#00ff00" d="M525.9386,-108.4C533.245,-108.4 546.0437,-108.4 555.4149,-108.4"/>
<polygon fill="#00ff00" stroke="#00ff00" points="555.5054,-110.5001 561.5053,-108.4 555.5053,-106.3001 555.5054,-110.5001"/>
</g>
<!-- HEAD -->
<g id="node21" class="node">
<title>HEAD</title>
<polygon fill="none" stroke="#ffffff" stroke-dasharray="5,2" points="670.4,-160.9 620.4,-160.9 620.4,-137.9 670.4,-137.9 670.4,-160.9"/>
<text text-anchor="middle" x="645.4" y="-145.7" font-family="monospace" font-size="14.00" fill="#ffffff">HEAD</text>
</g>
<!-- f3&#45;&gt;HEAD -->
<g id="edge21" class="edge">
<title>f3&#45;&gt;HEAD</title>
<path fill="none" stroke="#ffffff" stroke-dasharray="5,2" d="M572.144,-111.0901C582.3639,-116.4347 605.7578,-128.6687 623.3787,-137.8838"/>
</g>
<!-- feature -->
<g id="node23" class="node">
<title>feature</title>
<polygon fill="none" stroke="#ffffff" points="682.4,-119.9 608.4,-119.9 608.4,-96.9 682.4,-96.9 682.4,-119.9"/>
<text text-anchor="middle" x="645.4" y="-104.7" font-family="monospace" font-size="14.00" fill="#ffffff">feature</text>
</g>
<!-- f3&#45;&gt;feature -->
<g id="edge23" class="edge">
<title>f3&#45;&gt;feature</title>
<path fill="none" stroke="#ffffff" stroke-dasharray="5,2" d="M572.6383,-108.4C580.2221,-108.4 594.3571,-108.4 608.166,-108.4"/>
</g>
</g>
</svg>
